<?xml version="1.0" encoding="UTF-8"?>
<!DOCTYPE svg PUBLIC "-//W3C//DTD SVG 1.1//EN" "http://www.w3.org/Graphics/SVG/1.1/DTD/svg11.dtd">
<svg xmlns="http://www.w3.org/2000/svg" version="1.1" width="5100px" height="1378px" style="shape-rendering:geometricPrecision; text-rendering:geometricPrecision; image-rendering:optimizeQuality; fill-rule:evenodd; clip-rule:evenodd" xmlns:xlink="http://www.w3.org/1999/xlink">
<g><path style="opacity:1" fill="#fdfdfd" d="M 419.5,191.5 C 420.323,199.471 420.656,207.471 420.5,215.5C 420.5,215.833 420.5,216.167 420.5,216.5C 419.232,218.905 418.565,221.572 418.5,224.5C 406.972,250.157 387.305,260.324 359.5,255C 342.982,250.314 332.315,239.814 327.5,223.5C 325.928,210.429 326.261,197.429 328.5,184.5C 334.1,171.077 344.1,162.91 358.5,160C 387.857,153.675 408.191,164.175 419.5,191.5 Z"/></g>
<g><path style="opacity:0.988" fill="#d7d7d7" d="M 328.5,184.5 C 326.261,197.429 325.928,210.429 327.5,223.5C 326.778,223.082 326.278,222.416 326,221.5C 325.333,210.833 325.333,200.167 326,189.5C 326.757,187.685 327.59,186.019 328.5,184.5 Z"/></g>
<g><path style="opacity:0.794" fill="#c9c9c9" d="M 419.5,191.5 C 421.033,195.896 421.7,200.563 421.5,205.5C 421.498,209.018 421.165,212.351 420.5,215.5C 420.656,207.471 420.323,199.471 419.5,191.5 Z"/></g>
<g><path style="opacity:0.165" fill="#bebebe" d="M 420.5,216.5 C 420.706,219.495 420.04,222.162 418.5,224.5C 418.565,221.572 419.232,218.905 420.5,216.5 Z"/></g>
<g><path style="opacity:1" fill="#fcfcfc" d="M 528.5,420.5 C 529.757,423.427 531.757,425.761 534.5,427.5C 535.5,427.833 536.167,428.5 536.5,429.5C 537.419,432.089 539.086,434.089 541.5,435.5C 543.43,439.1 546.097,442.1 549.5,444.5C 651.119,545.452 752.452,646.785 853.5,748.5C 855.167,750.833 857.167,752.833 859.5,754.5C 860.5,756.167 861.833,757.5 863.5,758.5C 866.167,761.833 869.167,764.833 872.5,767.5C 875.167,770.833 878.167,773.833 881.5,776.5C 886.833,782.5 892.5,788.167 898.5,793.5C 899.5,795.167 900.833,796.5 902.5,797.5C 905.5,801.167 908.833,804.5 912.5,807.5C 913.5,809.167 914.833,810.5 916.5,811.5C 922.167,817.833 928.167,823.833 934.5,829.5C 938.5,834.167 942.833,838.5 947.5,842.5C 948.5,844.167 949.833,845.5 951.5,846.5C 966.167,861.833 981.167,876.833 996.5,891.5C 998.833,893.167 1000.83,895.167 1002.5,897.5C 1003.76,900.427 1005.76,902.761 1008.5,904.5C 1009.5,904.833 1010.17,905.5 1010.5,906.5C 1011.76,909.427 1013.76,911.761 1016.5,913.5C 1017.5,913.833 1018.17,914.5 1018.5,915.5C 1023.5,922.5 1029.5,928.5 1036.5,933.5C 1036.5,935.5 1037.5,936.5 1039.5,936.5C 1049.5,945.833 1059.17,955.5 1068.5,965.5C 1076.22,974.222 1084.55,982.222 1093.5,989.5C 1096.5,994.5 1100.5,998.5 1105.5,1001.5C 1113.17,1008.5 1120.5,1015.83 1127.5,1023.5C 1127.74,1025.4 1128.74,1026.74 1130.5,1027.5C 1131.34,1027.84 1131.67,1028.51 1131.5,1029.5C 1131.68,1032.73 1132.34,1035.73 1133.5,1038.5C 1133.84,1039.34 1134.51,1039.67 1135.5,1039.5C 1136.47,1041.95 1136.81,1044.61 1136.5,1047.5C 1134.71,1049.43 1133.71,1051.76 1133.5,1054.5C 1132.09,1054.97 1131.43,1055.97 1131.5,1057.5C 1131.5,1058.17 1131.17,1058.5 1130.5,1058.5C 1128.83,1059.5 1127.5,1060.83 1126.5,1062.5C 1126.5,1063.17 1126.17,1063.5 1125.5,1063.5C 1123.97,1063.43 1122.97,1064.09 1122.5,1065.5C 1117.18,1065.98 1111.84,1066.31 1106.5,1066.5C 1105.07,1065.46 1103.4,1064.8 1101.5,1064.5C 1098.91,1063.58 1096.91,1061.91 1095.5,1059.5C 1093.1,1056.1 1090.1,1053.43 1086.5,1051.5C 1082.79,1048.45 1079.45,1045.12 1076.5,1041.5C 1060.5,1024.83 1044.17,1008.5 1027.5,992.5C 1025.5,991.167 1023.83,989.5 1022.5,987.5C 1022.26,985.596 1021.26,984.262 1019.5,983.5C 1017.83,982.5 1016.5,981.167 1015.5,979.5C 1015.26,977.596 1014.26,976.262 1012.5,975.5C 1009.5,973.167 1006.83,970.5 1004.5,967.5C 953.084,914.583 901.084,862.083 848.5,810C 847.906,809.536 847.239,809.369 846.5,809.5C 839.869,803.369 833.369,797.036 827,790.5C 825.296,792.373 823.463,794.04 821.5,795.5C 819.596,795.738 818.262,796.738 817.5,798.5C 816.5,800.167 815.167,801.5 813.5,802.5C 810.911,803.419 808.911,805.086 807.5,807.5C 766.201,849.299 724.701,890.965 683,932.5C 682.616,934.197 682.782,935.863 683.5,937.5C 683.427,939.027 684.094,940.027 685.5,940.5C 686.338,940.842 686.672,941.508 686.5,942.5C 686.738,944.404 687.738,945.738 689.5,946.5C 690.833,947.167 691.833,948.167 692.5,949.5C 692.833,951.833 694.167,953.167 696.5,953.5C 699.167,955.5 701.5,957.833 703.5,960.5C 704.585,962.587 706.251,963.92 708.5,964.5C 709.833,965.167 710.833,966.167 711.5,967.5C 712.585,969.587 714.251,970.92 716.5,971.5C 718.5,972.833 720.167,974.5 721.5,976.5C 723.569,979.573 726.236,981.906 729.5,983.5C 757.833,1011.17 785.833,1039.17 813.5,1067.5C 814.833,1069.5 816.5,1071.17 818.5,1072.5C 821.167,1075.83 824.167,1078.83 827.5,1081.5C 848.833,1103.5 870.5,1125.17 892.5,1146.5C 893.419,1149.09 895.086,1151.09 897.5,1152.5C 897.427,1154.03 898.094,1155.03 899.5,1155.5C 901.293,1157.43 902.293,1159.76 902.5,1162.5C 903.2,1166.8 903.533,1171.13 903.5,1175.5C 903.598,1177.55 902.931,1179.22 901.5,1180.5C 900.094,1180.97 899.427,1181.97 899.5,1183.5C 899.5,1184.17 899.167,1184.5 898.5,1184.5C 896.167,1186.17 894.167,1188.17 892.5,1190.5C 892.5,1191.17 892.167,1191.5 891.5,1191.5C 889.597,1191.8 887.93,1192.46 886.5,1193.5C 881.653,1194.81 876.987,1194.47 872.5,1192.5C 871.415,1190.41 869.749,1189.08 867.5,1188.5C 866.089,1186.09 864.089,1184.42 861.5,1183.5C 859.431,1180.43 856.764,1178.09 853.5,1176.5C 849.167,1172.83 845.167,1168.83 841.5,1164.5C 840.5,1161.5 838.5,1159.5 835.5,1158.5C 774.549,1095.88 712.882,1033.88 650.5,972.5C 649.123,969.274 647.457,968.941 645.5,971.5C 644.833,972.833 643.833,973.833 642.5,974.5C 640.596,974.738 639.262,975.738 638.5,977.5C 637.833,978.833 636.833,979.833 635.5,980.5C 633.251,981.08 631.585,982.413 630.5,984.5C 626.167,989.5 621.5,994.167 616.5,998.5C 615.167,999.167 614.167,1000.17 613.5,1001.5C 611.5,1004.17 609.167,1006.5 606.5,1008.5C 604.596,1008.74 603.262,1009.74 602.5,1011.5C 601.5,1013.17 600.167,1014.5 598.5,1015.5C 596.251,1016.08 594.585,1017.41 593.5,1019.5C 589.5,1024.17 585.167,1028.5 580.5,1032.5C 579.761,1032.37 579.094,1032.54 578.5,1033C 571.239,1039.76 564.572,1046.92 558.5,1054.5C 506.833,1106.83 454.833,1158.83 402.5,1210.5C 400.973,1210.43 399.973,1211.09 399.5,1212.5C 397.664,1214.59 395.331,1215.92 392.5,1216.5C 385.711,1216.8 379.044,1216.13 372.5,1214.5C 369.088,1213.96 366.088,1212.62 363.5,1210.5C 363.027,1209.09 362.027,1208.43 360.5,1208.5C 358.596,1208.26 357.262,1207.26 356.5,1205.5C 355.833,1204.17 354.833,1203.17 353.5,1202.5C 352.135,1198.08 350.802,1193.74 349.5,1189.5C 348.838,1043.01 348.505,896.514 348.5,750C 348.339,603.142 348.839,456.309 350,309.5C 351.058,305.717 352.891,302.383 355.5,299.5C 365.502,290.555 377.169,286.721 390.5,288C 397.044,291.216 403.044,295.216 408.5,300C 448.701,340.035 488.701,380.201 528.5,420.5 Z M 398.5,357.5 C 407.754,366.417 417.087,375.417 426.5,384.5C 461.167,419.833 496.167,454.833 531.5,489.5C 534.167,492.833 537.167,495.833 540.5,498.5C 540.738,500.404 541.738,501.738 543.5,502.5C 544.833,504.5 546.5,506.167 548.5,507.5C 548.738,509.404 549.738,510.738 551.5,511.5C 553.167,513.833 555.167,515.833 557.5,517.5C 559.766,521.436 562.766,524.769 566.5,527.5C 611.549,573.549 657.216,618.883 703.5,663.5C 703.833,665.833 705.167,667.167 707.5,667.5C 707.5,669.5 708.5,670.5 710.5,670.5C 710.5,671.167 710.833,671.5 711.5,671.5C 711.5,673.5 712.5,674.5 714.5,674.5C 714.5,675.167 714.833,675.5 715.5,675.5C 715.833,677.833 717.167,679.167 719.5,679.5C 720.833,682.167 722.833,684.167 725.5,685.5C 725.5,687.5 726.5,688.5 728.5,688.5C 728.833,690.833 730.167,692.167 732.5,692.5C 733.5,695.5 735.5,697.5 738.5,698.5C 738.5,700.5 739.5,701.5 741.5,701.5C 741.5,702.167 741.833,702.5 742.5,702.5C 742.5,704.5 743.5,705.5 745.5,705.5C 745.5,706.167 745.833,706.5 746.5,706.5C 746.833,708.833 748.167,710.167 750.5,710.5C 754.506,715.839 759.173,720.506 764.5,724.5C 764.833,726.833 766.167,728.167 768.5,728.5C 770.43,732.1 773.097,735.1 776.5,737.5C 778.167,739.833 780.167,741.833 782.5,743.5C 783.08,745.749 784.413,747.415 786.5,748.5C 787.167,749.833 788.167,750.833 789.5,751.5C 789.859,753.371 790.859,754.871 792.5,756C 765.248,782.751 738.581,809.917 712.5,837.5C 711.833,837.5 711.5,837.833 711.5,838.5C 709.5,838.5 708.5,839.5 708.5,841.5C 707.833,841.5 707.5,841.833 707.5,842.5C 705.5,842.5 704.5,843.5 704.5,845.5C 701.833,846.833 699.833,848.833 698.5,851.5C 696.5,851.5 695.5,852.5 695.5,854.5C 694.833,854.5 694.5,854.833 694.5,855.5C 692.5,855.5 691.5,856.5 691.5,858.5C 687.5,861.833 683.833,865.5 680.5,869.5C 678.5,869.5 677.5,870.5 677.5,872.5C 676.833,872.5 676.5,872.833 676.5,873.5C 674.5,873.5 673.5,874.5 673.5,876.5C 672.833,876.5 672.5,876.833 672.5,877.5C 670.5,877.5 669.5,878.5 669.5,880.5C 666.812,881.855 664.812,883.855 663.5,886.5C 661.5,886.5 660.5,887.5 660.5,889.5C 656.833,892.5 653.5,895.833 650.5,899.5C 648.167,899.833 646.833,901.167 646.5,903.5C 645.833,903.5 645.5,903.833 645.5,904.5C 643.5,904.5 642.5,905.5 642.5,907.5C 641.833,907.5 641.5,907.833 641.5,908.5C 639.5,908.5 638.5,909.5 638.5,911.5C 634.167,914.5 630.5,918.167 627.5,922.5C 625.5,922.5 624.5,923.5 624.5,925.5C 623.833,925.5 623.5,925.833 623.5,926.5C 621.5,926.5 620.5,927.5 620.5,929.5C 619.833,929.5 619.5,929.833 619.5,930.5C 617.5,930.5 616.5,931.5 616.5,933.5C 613.833,934.833 611.833,936.833 610.5,939.5C 608.077,940.95 606.077,942.95 604.5,945.5C 595.833,953.5 587.5,961.833 579.5,970.5C 577.5,970.5 576.5,971.5 576.5,973.5C 575.833,973.5 575.5,973.833 575.5,974.5C 570.226,978.105 565.559,982.438 561.5,987.5C 558.573,988.757 556.239,990.757 554.5,993.5C 550.564,995.766 547.231,998.766 544.5,1002.5C 528.5,1017.83 512.833,1033.5 497.5,1049.5C 468.833,1077.5 440.5,1105.83 412.5,1134.5C 408.9,1136.43 405.9,1139.1 403.5,1142.5C 400.911,1143.42 398.911,1145.09 397.5,1147.5C 396.5,928.667 396.167,709.667 396.5,490.5C 395.839,445.821 396.505,401.487 398.5,357.5 Z"/></g>
<g><path style="opacity:0.867" fill="#dadada" d="M 398.5,357.5 C 396.505,401.487 395.839,445.821 396.5,490.5C 396.167,490.5 395.833,490.5 395.5,490.5C 395.5,445.833 395.5,401.167 395.5,356.5C 396.791,356.263 397.791,356.596 398.5,357.5 Z"/></g>
<g><path style="opacity:0.983" fill="#fdfefd" d="M 2112.5,369.5 C 2133.83,369.5 2155.17,369.5 2176.5,369.5C 2176.33,433.501 2176.5,497.501 2177,561.5C 2206.21,527.479 2243.38,509.313 2288.5,507C 2368.78,505.017 2426.62,539.851 2462,611.5C 2480.12,656.384 2483.45,702.384 2472,749.5C 2456.05,806.779 2420.88,847.279 2366.5,871C 2333.65,882.795 2299.98,885.795 2265.5,880C 2227.86,873.283 2197.69,854.783 2175,824.5C 2174.5,841.497 2174.33,858.497 2174.5,875.5C 2153.83,875.5 2133.17,875.5 2112.5,875.5C 2112.5,706.833 2112.5,538.167 2112.5,369.5 Z M 2282.5,568.5 C 2343.07,566.525 2383.91,593.858 2405,650.5C 2418.28,695.608 2411.95,737.608 2386,776.5C 2354.02,815.829 2313.18,829.662 2263.5,818C 2221.19,804.36 2193.69,776.193 2181,733.5C 2170.55,692.984 2176.22,654.984 2198,619.5C 2218.81,590.343 2246.98,573.343 2282.5,568.5 Z"/></g>
<g><path style="opacity:0.98" fill="#fdfefd" d="M 2941.5,369.5 C 2962.83,369.5 2984.17,369.5 3005.5,369.5C 3005.5,537.833 3005.5,706.167 3005.5,874.5C 2984.17,874.5 2962.83,874.5 2941.5,874.5C 2941.5,706.167 2941.5,537.833 2941.5,369.5 Z"/></g>
<g><path style="opacity:0.986" fill="#fdfefd" d="M 4898.5,369.5 C 4914.29,368.917 4929.95,369.917 4945.5,372.5C 4945.67,391.503 4945.5,410.503 4945,429.5C 4937.81,427.945 4930.48,427.278 4923,427.5C 4903.79,426.344 4886.29,431.177 4870.5,442C 4858.8,452.907 4852.63,466.407 4852,482.5C 4851.5,493.161 4851.33,503.828 4851.5,514.5C 4880.17,514.5 4908.83,514.5 4937.5,514.5C 4937.5,534.833 4937.5,555.167 4937.5,575.5C 4908.83,575.5 4880.17,575.5 4851.5,575.5C 4851.5,675.167 4851.5,774.833 4851.5,874.5C 4830.5,874.5 4809.5,874.5 4788.5,874.5C 4788.5,774.833 4788.5,675.167 4788.5,575.5C 4765.5,575.5 4742.5,575.5 4719.5,575.5C 4719.5,555.167 4719.5,534.833 4719.5,514.5C 4742.5,514.5 4765.5,514.5 4788.5,514.5C 4787.28,495.873 4788.11,477.207 4791,458.5C 4801.85,415.316 4828.68,387.483 4871.5,375C 4880.55,372.719 4889.55,370.885 4898.5,369.5 Z"/></g>
<g><path style="opacity:0.984" fill="#fdfefd" d="M 1497.5,377.5 C 1519.83,377.5 1542.17,377.5 1564.5,377.5C 1564.5,543.5 1564.5,709.5 1564.5,875.5C 1542.17,875.5 1519.83,875.5 1497.5,875.5C 1497.5,709.5 1497.5,543.5 1497.5,377.5 Z"/></g>
<g><path style="opacity:0.983" fill="#fdfefd" d="M 3237.5,377.5 C 3263.74,377.172 3289.91,377.505 3316,378.5C 3375.27,543.462 3434.43,708.462 3493.5,873.5C 3469.6,874.827 3445.77,874.827 3422,873.5C 3408.83,835.833 3395.67,798.167 3382.5,760.5C 3311.83,759.167 3241.17,759.167 3170.5,760.5C 3157.33,798.167 3144.17,835.833 3131,873.5C 3107.23,874.827 3083.4,874.827 3059.5,873.5C 3118.65,708.062 3177.98,542.729 3237.5,377.5 Z M 3275.5,456.5 C 3276.5,456.47 3277.16,456.97 3277.5,458C 3305.17,537.683 3332.84,617.35 3360.5,697C 3304.5,697.5 3248.5,697.667 3192.5,697.5C 3219.97,617.104 3247.63,536.77 3275.5,456.5 Z"/></g>
<g><path style="opacity:0.984" fill="#fdfefd" d="M 3554.5,377.5 C 3619.5,377.333 3684.5,377.5 3749.5,378C 3792.05,380.368 3828.55,396.202 3859,425.5C 3889.12,460.873 3901.79,501.873 3897,548.5C 3889.84,610.156 3857.34,652.156 3799.5,674.5C 3837.83,741.167 3876.17,807.833 3914.5,874.5C 3888.6,875.827 3862.77,875.827 3837,874.5C 3801.7,811.705 3766.2,749.038 3730.5,686.5C 3694.17,685.5 3657.84,685.167 3621.5,685.5C 3621.5,748.5 3621.5,811.5 3621.5,874.5C 3599.17,874.5 3576.83,874.5 3554.5,874.5C 3554.5,708.833 3554.5,543.167 3554.5,377.5 Z M 3621.5,438.5 C 3663.17,438.333 3704.83,438.5 3746.5,439C 3800.34,446.166 3828.34,476.833 3830.5,531C 3828.68,583.819 3801.68,614.485 3749.5,623C 3706.85,624.398 3664.18,624.898 3621.5,624.5C 3621.5,562.5 3621.5,500.5 3621.5,438.5 Z"/></g>
<g><path style="opacity:0.945" fill="#aeaeae" d="M 426.5,384.5 C 461.75,418.248 496.583,452.582 531,487.5C 531.464,488.094 531.631,488.761 531.5,489.5C 496.167,454.833 461.167,419.833 426.5,384.5 Z"/></g>
<g><path style="opacity:0.945" fill="#a8a8a8" d="M 528.5,420.5 C 531.243,422.239 533.243,424.573 534.5,427.5C 531.757,425.761 529.757,423.427 528.5,420.5 Z"/></g>
<g><path style="opacity:0.796" fill="#a7a7a7" d="M 536.5,429.5 C 538.914,430.911 540.581,432.911 541.5,435.5C 539.086,434.089 537.419,432.089 536.5,429.5 Z"/></g>
<g><path style="opacity:0.992" fill="#b4b4b4" d="M 541.5,435.5 C 544.903,437.9 547.57,440.9 549.5,444.5C 546.097,442.1 543.43,439.1 541.5,435.5 Z"/></g>
<g><path style="opacity:0.741" fill="#adadad" d="M 395.5,490.5 C 395.833,490.5 396.167,490.5 396.5,490.5C 396.167,709.667 396.5,928.667 397.5,1147.5C 397.44,1148.04 397.107,1148.38 396.5,1148.5C 395.5,929.168 395.167,709.834 395.5,490.5 Z"/></g>
<g><path style="opacity:0.039" fill="#9a9a9a" d="M 540.5,498.5 C 542.262,499.262 543.262,500.596 543.5,502.5C 541.738,501.738 540.738,500.404 540.5,498.5 Z"/></g>
<g><path style="opacity:0.98" fill="#fdfefd" d="M 1818.5,506.5 C 1860.22,503.842 1897.89,514.675 1931.5,539C 1940.33,546.5 1948.5,554.667 1956,563.5C 1956.5,547.17 1956.67,530.837 1956.5,514.5C 1977.17,514.5 1997.83,514.5 2018.5,514.5C 2018.83,679.188 2018.49,843.855 2017.5,1008.5C 1996.5,1008.5 1975.5,1008.5 1954.5,1008.5C 1954.67,948.166 1954.5,887.832 1954,827.5C 1929.48,857.938 1897.65,875.771 1858.5,881C 1787.86,889.922 1730.7,866.422 1687,810.5C 1656.62,765.294 1645.62,715.627 1654,661.5C 1663.69,603.861 1693.19,559.695 1742.5,529C 1766.3,515.888 1791.64,508.388 1818.5,506.5 Z M 1823.5,568.5 C 1886.82,566.729 1928.66,595.729 1949,655.5C 1960.04,697.235 1954.04,736.235 1931,772.5C 1897.76,815.583 1854.59,830.416 1801.5,817C 1754.52,799.27 1727.35,765.437 1720,715.5C 1713.8,670.436 1726.3,631.602 1757.5,599C 1776.41,582.044 1798.41,571.878 1823.5,568.5 Z"/></g>
<g><path style="opacity:0.98" fill="#fdfefd" d="M 2696.5,506.5 C 2737.38,503.712 2774.04,514.545 2806.5,539C 2831.05,560.594 2844.55,587.76 2847,620.5C 2847.5,705.499 2847.67,790.499 2847.5,875.5C 2826.83,875.5 2806.17,875.5 2785.5,875.5C 2785.67,860.496 2785.5,845.496 2785,830.5C 2758.54,860.983 2725.04,878.149 2684.5,882C 2648.93,886.488 2615.93,879.488 2585.5,861C 2550.69,834.584 2537.52,799.751 2546,756.5C 2552.53,726.647 2569.03,704.147 2595.5,689C 2609.72,681.056 2624.72,675.056 2640.5,671C 2688.06,662.184 2735.73,654.017 2783.5,646.5C 2787.57,603.775 2768.91,577.275 2727.5,567C 2677.23,559.466 2640.23,577.966 2616.5,622.5C 2598.59,613.294 2580.75,603.961 2563,594.5C 2564.44,588.602 2566.77,582.936 2570,577.5C 2592.34,545.186 2622.5,523.686 2660.5,513C 2672.47,509.843 2684.47,507.676 2696.5,506.5 Z M 2781.5,699.5 C 2789.39,746.989 2773.72,784.823 2734.5,813C 2708.85,827.608 2681.52,832.275 2652.5,827C 2619.81,817.332 2606.64,795.832 2613,762.5C 2619.97,742.864 2633.47,730.031 2653.5,724C 2658.46,722.511 2663.46,721.178 2668.5,720C 2706.34,713.362 2744.01,706.528 2781.5,699.5 Z"/></g>
<g><path style="opacity:0.98" fill="#fdfefd" d="M 4117.5,506.5 C 4158.38,503.712 4195.04,514.545 4227.5,539C 4252.05,560.594 4265.55,587.76 4268,620.5C 4268.5,705.499 4268.67,790.499 4268.5,875.5C 4247.83,875.5 4227.17,875.5 4206.5,875.5C 4206.67,860.496 4206.5,845.496 4206,830.5C 4179.54,860.983 4146.04,878.149 4105.5,882C 4069.93,886.488 4036.93,879.488 4006.5,861C 3971.69,834.584 3958.52,799.751 3967,756.5C 3973.53,726.647 3990.03,704.147 4016.5,689C 4030.72,681.056 4045.72,675.056 4061.5,671C 4109.06,662.184 4156.73,654.017 4204.5,646.5C 4208.57,603.775 4189.91,577.275 4148.5,567C 4098.23,559.466 4061.23,577.966 4037.5,622.5C 4019.59,613.294 4001.75,603.961 3984,594.5C 3985.44,588.602 3987.77,582.936 3991,577.5C 4013.34,545.186 4043.5,523.686 4081.5,513C 4093.47,509.843 4105.47,507.676 4117.5,506.5 Z M 4202.5,699.5 C 4210.39,746.989 4194.72,784.823 4155.5,813C 4129.85,827.608 4102.52,832.275 4073.5,827C 4040.81,817.332 4027.64,795.832 4034,762.5C 4040.97,742.864 4054.47,730.031 4074.5,724C 4079.46,722.511 4084.46,721.178 4089.5,720C 4127.34,713.362 4165.01,706.528 4202.5,699.5 Z"/></g>
<g><path style="opacity:0.071" fill="#9e9e9e" d="M 548.5,507.5 C 550.262,508.262 551.262,509.596 551.5,511.5C 549.738,510.738 548.738,509.404 548.5,507.5 Z"/></g>
<g><path style="opacity:0.987" fill="#fdfefd" d="M 4356.5,514.5 C 4377.5,514.5 4398.5,514.5 4419.5,514.5C 4419.33,590.167 4419.5,665.834 4420,741.5C 4426.14,792.146 4454.64,818.813 4505.5,821.5C 4554.95,819.221 4583.45,793.555 4591,744.5C 4591.33,738.833 4591.67,733.167 4592,727.5C 4592.5,656.501 4592.67,585.501 4592.5,514.5C 4613.5,514.5 4634.5,514.5 4655.5,514.5C 4655.5,634.833 4655.5,755.167 4655.5,875.5C 4635.17,875.5 4614.83,875.5 4594.5,875.5C 4594.67,860.83 4594.5,846.163 4594,831.5C 4573.81,861.199 4545.64,878.032 4509.5,882C 4462.95,887.599 4423.45,873.765 4391,840.5C 4371.2,817.208 4359.86,790.208 4357,759.5C 4356.5,677.834 4356.33,596.167 4356.5,514.5 Z"/></g>
<g><path style="opacity:0.016" fill="#a0a0a0" d="M 557.5,517.5 C 561.234,520.231 564.234,523.564 566.5,527.5C 562.766,524.769 559.766,521.436 557.5,517.5 Z"/></g>
<g><path style="opacity:0.941" fill="#a5a5a5" d="M 566.5,527.5 C 612.784,572.117 658.451,617.451 703.5,663.5C 657.216,618.883 611.549,573.549 566.5,527.5 Z"/></g>
<g><path style="opacity:0.016" fill="#999999" d="M 703.5,663.5 C 705.167,664.5 706.5,665.833 707.5,667.5C 705.167,667.167 703.833,665.833 703.5,663.5 Z"/></g>
<g><path style="opacity:0.008" fill="#999999" d="M 707.5,667.5 C 708.833,668.167 709.833,669.167 710.5,670.5C 708.5,670.5 707.5,669.5 707.5,667.5 Z"/></g>
<g><path style="opacity:0.008" fill="#989898" d="M 711.5,671.5 C 712.833,672.167 713.833,673.167 714.5,674.5C 712.5,674.5 711.5,673.5 711.5,671.5 Z"/></g>
<g><path style="opacity:0.008" fill="#999999" d="M 715.5,675.5 C 717.167,676.5 718.5,677.833 719.5,679.5C 717.167,679.167 715.833,677.833 715.5,675.5 Z"/></g>
<g><path style="opacity:0.016" fill="#999999" d="M 725.5,685.5 C 726.833,686.167 727.833,687.167 728.5,688.5C 726.5,688.5 725.5,687.5 725.5,685.5 Z"/></g>
<g><path style="opacity:0.008" fill="#999999" d="M 728.5,688.5 C 730.167,689.5 731.5,690.833 732.5,692.5C 730.167,692.167 728.833,690.833 728.5,688.5 Z"/></g>
<g><path style="opacity:0.008" fill="#999999" d="M 732.5,692.5 C 734.833,694.167 736.833,696.167 738.5,698.5C 735.5,697.5 733.5,695.5 732.5,692.5 Z"/></g>
<g><path style="opacity:0.008" fill="#999999" d="M 738.5,698.5 C 739.833,699.167 740.833,700.167 741.5,701.5C 739.5,701.5 738.5,700.5 738.5,698.5 Z"/></g>
<g><path style="opacity:0.008" fill="#999999" d="M 742.5,702.5 C 743.833,703.167 744.833,704.167 745.5,705.5C 743.5,705.5 742.5,704.5 742.5,702.5 Z"/></g>
<g><path style="opacity:0.008" fill="#999999" d="M 746.5,706.5 C 748.167,707.5 749.5,708.833 750.5,710.5C 748.167,710.167 746.833,708.833 746.5,706.5 Z"/></g>
<g><path style="opacity:0.016" fill="#999999" d="M 764.5,724.5 C 766.167,725.5 767.5,726.833 768.5,728.5C 766.167,728.167 764.833,726.833 764.5,724.5 Z"/></g>
<g><path style="opacity:0.008" fill="#9f9f9f" d="M 768.5,728.5 C 771.903,730.9 774.57,733.9 776.5,737.5C 773.097,735.1 770.43,732.1 768.5,728.5 Z"/></g>
<g><path style="opacity:0.016" fill="#9b9b9b" d="M 782.5,743.5 C 784.587,744.585 785.92,746.251 786.5,748.5C 784.413,747.415 783.08,745.749 782.5,743.5 Z"/></g>
<g><path style="opacity:0.008" fill="#999999" d="M 853.5,748.5 C 856.5,749.5 858.5,751.5 859.5,754.5C 857.167,752.833 855.167,750.833 853.5,748.5 Z"/></g>
<g><path style="opacity:0.024" fill="#9a9a9a" d="M 859.5,754.5 C 861.833,754.833 863.167,756.167 863.5,758.5C 861.833,757.5 860.5,756.167 859.5,754.5 Z"/></g>
<g><path style="opacity:0.016" fill="#9a9a9a" d="M 863.5,758.5 C 867.5,760.5 870.5,763.5 872.5,767.5C 869.167,764.833 866.167,761.833 863.5,758.5 Z"/></g>
<g><path style="opacity:0.024" fill="#9a9a9a" d="M 872.5,767.5 C 876.5,769.5 879.5,772.5 881.5,776.5C 878.167,773.833 875.167,770.833 872.5,767.5 Z"/></g>
<g><path style="opacity:0.024" fill="#9a9a9a" d="M 881.5,776.5 C 888.167,781.167 893.833,786.833 898.5,793.5C 892.5,788.167 886.833,782.5 881.5,776.5 Z"/></g>
<g><path style="opacity:0.008" fill="#9a9a9a" d="M 898.5,793.5 C 900.833,793.833 902.167,795.167 902.5,797.5C 900.833,796.5 899.5,795.167 898.5,793.5 Z"/></g>
<g><path style="opacity:0.055" fill="#949494" d="M 821.5,795.5 C 820.738,797.262 819.404,798.262 817.5,798.5C 818.262,796.738 819.596,795.738 821.5,795.5 Z"/></g>
<g><path style="opacity:0.008" fill="#9a9a9a" d="M 902.5,797.5 C 906.833,799.833 910.167,803.167 912.5,807.5C 908.833,804.5 905.5,801.167 902.5,797.5 Z"/></g>
<g><path style="opacity:0.816" fill="#a5a5a5" d="M 789.5,751.5 C 792.221,752.696 793.387,754.696 793,757.5C 766.299,784.368 739.465,811.035 712.5,837.5C 738.581,809.917 765.248,782.751 792.5,756C 790.859,754.871 789.859,753.371 789.5,751.5 Z"/></g>
<g><path style="opacity:0.016" fill="#959595" d="M 813.5,802.5 C 812.089,804.914 810.089,806.581 807.5,807.5C 808.911,805.086 810.911,803.419 813.5,802.5 Z"/></g>
<g><path style="opacity:0.024" fill="#9a9a9a" d="M 912.5,807.5 C 914.833,807.833 916.167,809.167 916.5,811.5C 914.833,810.5 913.5,809.167 912.5,807.5 Z"/></g>
<g><path style="opacity:0.976" fill="#adadad" d="M 846.5,809.5 C 847.239,809.369 847.906,809.536 848.5,810C 901.084,862.083 953.084,914.583 1004.5,967.5C 951.5,915.167 898.833,862.5 846.5,809.5 Z"/></g>
<g><path style="opacity:0.016" fill="#9a9a9a" d="M 916.5,811.5 C 923.5,816.5 929.5,822.5 934.5,829.5C 928.167,823.833 922.167,817.833 916.5,811.5 Z"/></g>
<g><path style="opacity:0.031" fill="#9a9a9a" d="M 934.5,829.5 C 939.833,832.833 944.167,837.167 947.5,842.5C 942.833,838.5 938.5,834.167 934.5,829.5 Z"/></g>
<g><path style="opacity:0.729" fill="#9e9e9e" d="M 711.5,838.5 C 710.833,839.833 709.833,840.833 708.5,841.5C 708.5,839.5 709.5,838.5 711.5,838.5 Z"/></g>
<g><path style="opacity:0.016" fill="#9a9a9a" d="M 947.5,842.5 C 949.833,842.833 951.167,844.167 951.5,846.5C 949.833,845.5 948.5,844.167 947.5,842.5 Z"/></g>
<g><path style="opacity:0.729" fill="#a0a0a0" d="M 707.5,842.5 C 706.833,843.833 705.833,844.833 704.5,845.5C 704.5,843.5 705.5,842.5 707.5,842.5 Z"/></g>
<g><path style="opacity:0.008" fill="#9f9f9f" d="M 951.5,846.5 C 966.748,860.245 981.581,874.578 996,889.5C 996.464,890.094 996.631,890.761 996.5,891.5C 981.167,876.833 966.167,861.833 951.5,846.5 Z"/></g>
<g><path style="opacity:0.729" fill="#9e9e9e" d="M 698.5,851.5 C 697.833,852.833 696.833,853.833 695.5,854.5C 695.5,852.5 696.5,851.5 698.5,851.5 Z"/></g>
<g><path style="opacity:0.729" fill="#9e9e9e" d="M 694.5,855.5 C 693.833,856.833 692.833,857.833 691.5,858.5C 691.5,856.5 692.5,855.5 694.5,855.5 Z"/></g>
<g><path style="opacity:0.722" fill="#9e9e9e" d="M 680.5,869.5 C 679.833,870.833 678.833,871.833 677.5,872.5C 677.5,870.5 678.5,869.5 680.5,869.5 Z"/></g>
<g><path style="opacity:0.729" fill="#a0a0a0" d="M 676.5,873.5 C 675.833,874.833 674.833,875.833 673.5,876.5C 673.5,874.5 674.5,873.5 676.5,873.5 Z"/></g>
<g><path style="opacity:0.725" fill="#9f9f9f" d="M 672.5,877.5 C 671.833,878.833 670.833,879.833 669.5,880.5C 669.5,878.5 670.5,877.5 672.5,877.5 Z"/></g>
<g><path style="opacity:0.729" fill="#9e9e9e" d="M 663.5,886.5 C 662.833,887.833 661.833,888.833 660.5,889.5C 660.5,887.5 661.5,886.5 663.5,886.5 Z"/></g>
<g><path style="opacity:0.973" fill="#adadad" d="M 1002.5,897.5 C 1005.24,899.239 1007.24,901.573 1008.5,904.5C 1005.76,902.761 1003.76,900.427 1002.5,897.5 Z"/></g>
<g><path style="opacity:0.725" fill="#9d9d9d" d="M 650.5,899.5 C 649.5,901.167 648.167,902.5 646.5,903.5C 646.833,901.167 648.167,899.833 650.5,899.5 Z"/></g>
<g><path style="opacity:0.725" fill="#9e9e9e" d="M 645.5,904.5 C 644.833,905.833 643.833,906.833 642.5,907.5C 642.5,905.5 643.5,904.5 645.5,904.5 Z"/></g>
<g><path style="opacity:0.988" fill="#b1b1b1" d="M 1010.5,906.5 C 1013.24,908.239 1015.24,910.573 1016.5,913.5C 1013.76,911.761 1011.76,909.427 1010.5,906.5 Z"/></g>
<g><path style="opacity:0.729" fill="#9e9e9e" d="M 641.5,908.5 C 640.833,909.833 639.833,910.833 638.5,911.5C 638.5,909.5 639.5,908.5 641.5,908.5 Z"/></g>
<g><path style="opacity:0.98" fill="#aeaeae" d="M 1018.5,915.5 C 1024.83,921.167 1030.83,927.167 1036.5,933.5C 1029.5,928.5 1023.5,922.5 1018.5,915.5 Z"/></g>
<g><path style="opacity:0.722" fill="#9f9f9f" d="M 627.5,922.5 C 626.833,923.833 625.833,924.833 624.5,925.5C 624.5,923.5 625.5,922.5 627.5,922.5 Z"/></g>
<g><path style="opacity:0.725" fill="#9f9f9f" d="M 623.5,926.5 C 622.833,927.833 621.833,928.833 620.5,929.5C 620.5,927.5 621.5,926.5 623.5,926.5 Z"/></g>
<g><path style="opacity:0.725" fill="#9f9f9f" d="M 619.5,930.5 C 618.833,931.833 617.833,932.833 616.5,933.5C 616.5,931.5 617.5,930.5 619.5,930.5 Z"/></g>
<g><path style="opacity:0.953" fill="#b1b1b1" d="M 1036.5,933.5 C 1037.83,934.167 1038.83,935.167 1039.5,936.5C 1037.5,936.5 1036.5,935.5 1036.5,933.5 Z"/></g>
<g><path style="opacity:0.486" fill="#9a9a9a" d="M 683.5,937.5 C 684.906,937.973 685.573,938.973 685.5,940.5C 684.094,940.027 683.427,939.027 683.5,937.5 Z"/></g>
<g><path style="opacity:1" fill="#c6c6c6" d="M 610.5,939.5 C 609.378,942.438 607.378,944.438 604.5,945.5C 606.077,942.95 608.077,940.95 610.5,939.5 Z"/></g>
<g><path style="opacity:0.875" fill="#afafaf" d="M 686.5,942.5 C 688.262,943.262 689.262,944.596 689.5,946.5C 687.738,945.738 686.738,944.404 686.5,942.5 Z"/></g>
<g><path style="opacity:0.961" fill="#b2b2b2" d="M 692.5,949.5 C 694.167,950.5 695.5,951.833 696.5,953.5C 694.167,953.167 692.833,951.833 692.5,949.5 Z"/></g>
<g><path style="opacity:0.016" fill="#9c9c9c" d="M 703.5,960.5 C 705.749,961.08 707.415,962.413 708.5,964.5C 706.251,963.92 704.585,962.587 703.5,960.5 Z"/></g>
<g><path style="opacity:0.016" fill="#a0a0a0" d="M 1068.5,965.5 C 1077.45,972.778 1085.78,980.778 1093.5,989.5C 1084.55,982.222 1076.22,974.222 1068.5,965.5 Z"/></g>
<g><path style="opacity:0.008" fill="#9c9c9c" d="M 711.5,967.5 C 713.749,968.08 715.415,969.413 716.5,971.5C 714.251,970.92 712.585,969.587 711.5,967.5 Z"/></g>
<g><path style="opacity:0.012" fill="#9b9b9b" d="M 650.5,972.5 C 648.883,971.962 647.216,971.629 645.5,971.5C 647.457,968.941 649.123,969.274 650.5,972.5 Z"/></g>
<g><path style="opacity:0.729" fill="#9e9e9e" d="M 579.5,970.5 C 578.833,971.833 577.833,972.833 576.5,973.5C 576.5,971.5 577.5,970.5 579.5,970.5 Z"/></g>
<g><path style="opacity:0.008" fill="#a2a2a2" d="M 650.5,972.5 C 712.882,1033.88 774.549,1095.88 835.5,1158.5C 773.118,1097.12 711.451,1035.12 650.5,972.5 Z"/></g>
<g><path style="opacity:0.078" fill="#979797" d="M 642.5,974.5 C 641.738,976.262 640.404,977.262 638.5,977.5C 639.262,975.738 640.596,974.738 642.5,974.5 Z"/></g>
<g><path style="opacity:0.047" fill="#a2a2a2" d="M 721.5,976.5 C 724.764,978.094 727.431,980.427 729.5,983.5C 726.236,981.906 723.569,979.573 721.5,976.5 Z"/></g>
<g><path style="opacity:0.063" fill="#9d9d9d" d="M 1012.5,975.5 C 1014.26,976.262 1015.26,977.596 1015.5,979.5C 1013.74,978.738 1012.74,977.404 1012.5,975.5 Z"/></g>
<g><path style="opacity:0.016" fill="#959595" d="M 635.5,980.5 C 634.415,982.587 632.749,983.92 630.5,984.5C 631.585,982.413 633.251,981.08 635.5,980.5 Z"/></g>
<g><path style="opacity:0.024" fill="#9c9c9c" d="M 1019.5,983.5 C 1021.26,984.262 1022.26,985.596 1022.5,987.5C 1020.74,986.738 1019.74,985.404 1019.5,983.5 Z"/></g>
<g><path style="opacity:0.992" fill="#c1c1c1" d="M 575.5,974.5 C 571.441,979.562 566.774,983.895 561.5,987.5C 565.559,982.438 570.226,978.105 575.5,974.5 Z"/></g>
<g><path style="opacity:0.961" fill="#b2b2b2" d="M 1093.5,989.5 C 1097.83,993.167 1101.83,997.167 1105.5,1001.5C 1100.5,998.5 1096.5,994.5 1093.5,989.5 Z"/></g>
<g><path style="opacity:0.98" fill="#bebebe" d="M 561.5,987.5 C 559.761,990.243 557.427,992.243 554.5,993.5C 556.239,990.757 558.573,988.757 561.5,987.5 Z"/></g>
<g><path style="opacity:0.016" fill="#a6a6a6" d="M 1027.5,992.5 C 1044.17,1008.5 1060.5,1024.83 1076.5,1041.5C 1059.92,1026.42 1043.75,1010.75 1028,994.5C 1027.54,993.906 1027.37,993.239 1027.5,992.5 Z"/></g>
<g><path style="opacity:0.016" fill="#939393" d="M 616.5,998.5 C 616.5,1000.5 615.5,1001.5 613.5,1001.5C 614.167,1000.17 615.167,999.167 616.5,998.5 Z"/></g>
<g><path style="opacity:0.984" fill="#bcbcbc" d="M 554.5,993.5 C 551.769,997.234 548.436,1000.23 544.5,1002.5C 547.231,998.766 550.564,995.766 554.5,993.5 Z"/></g>
<g><path style="opacity:0.086" fill="#969696" d="M 606.5,1008.5 C 605.738,1010.26 604.404,1011.26 602.5,1011.5C 603.262,1009.74 604.596,1008.74 606.5,1008.5 Z"/></g>
<g><path style="opacity:0.016" fill="#959595" d="M 598.5,1015.5 C 597.415,1017.59 595.749,1018.92 593.5,1019.5C 594.585,1017.41 596.251,1016.08 598.5,1015.5 Z"/></g>
<g><path style="opacity:0.816" fill="#a7a7a7" d="M 1127.5,1023.5 C 1129.26,1024.26 1130.26,1025.6 1130.5,1027.5C 1128.74,1026.74 1127.74,1025.4 1127.5,1023.5 Z"/></g>
<g><path style="opacity:0.965" fill="#565656" d="M 1131.5,1029.5 C 1132.67,1030.51 1133.34,1031.85 1133.5,1033.5C 1133.5,1035.17 1133.5,1036.83 1133.5,1038.5C 1132.34,1035.73 1131.68,1032.73 1131.5,1029.5 Z"/></g>
<g><path style="opacity:0.671" fill="#212121" d="M 1133.5,1033.5 C 1134.74,1035.21 1135.41,1037.21 1135.5,1039.5C 1134.51,1039.67 1133.84,1039.34 1133.5,1038.5C 1133.5,1036.83 1133.5,1035.17 1133.5,1033.5 Z"/></g>
<g><path style="opacity:0.063" fill="#999999" d="M 580.5,1032.5 C 573.5,1040.17 566.167,1047.5 558.5,1054.5C 564.572,1046.92 571.239,1039.76 578.5,1033C 579.094,1032.54 579.761,1032.37 580.5,1032.5 Z"/></g>
<g><path style="opacity:0.514" fill="#9e9e9e" d="M 1136.5,1047.5 C 1136.29,1050.24 1135.29,1052.57 1133.5,1054.5C 1133.71,1051.76 1134.71,1049.43 1136.5,1047.5 Z"/></g>
<g><path style="opacity:0.984" fill="#aeaeae" d="M 1086.5,1051.5 C 1090.1,1053.43 1093.1,1056.1 1095.5,1059.5C 1091.9,1057.57 1088.9,1054.9 1086.5,1051.5 Z"/></g>
<g><path style="opacity:0.29" fill="#9b9b9b" d="M 1133.5,1054.5 C 1133.57,1056.03 1132.91,1057.03 1131.5,1057.5C 1131.43,1055.97 1132.09,1054.97 1133.5,1054.5 Z"/></g>
<g><path style="opacity:0.031" fill="#949494" d="M 1130.5,1058.5 C 1130.17,1060.83 1128.83,1062.17 1126.5,1062.5C 1127.5,1060.83 1128.83,1059.5 1130.5,1058.5 Z"/></g>
<g><path style="opacity:0.031" fill="#959595" d="M 1125.5,1063.5 C 1125.03,1064.91 1124.03,1065.57 1122.5,1065.5C 1122.97,1064.09 1123.97,1063.43 1125.5,1063.5 Z"/></g>
<g><path style="opacity:0.502" fill="#a9a9a9" d="M 1101.5,1064.5 C 1103.4,1064.8 1105.07,1065.46 1106.5,1066.5C 1104.3,1066.88 1102.64,1066.21 1101.5,1064.5 Z"/></g>
<g><path style="opacity:0.354" fill="#9b9b9b" d="M 1122.5,1065.5 C 1119.45,1066.94 1116.12,1067.6 1112.5,1067.5C 1110.3,1067.5 1108.3,1067.16 1106.5,1066.5C 1111.84,1066.31 1117.18,1065.98 1122.5,1065.5 Z"/></g>
<g><path style="opacity:0.016" fill="#9a9a9a" d="M 813.5,1067.5 C 816.167,1068.17 817.833,1069.83 818.5,1072.5C 816.5,1071.17 814.833,1069.5 813.5,1067.5 Z"/></g>
<g><path style="opacity:0.024" fill="#9a9a9a" d="M 818.5,1072.5 C 822.5,1074.5 825.5,1077.5 827.5,1081.5C 824.167,1078.83 821.167,1075.83 818.5,1072.5 Z"/></g>
<g><path style="opacity:0.039" fill="#a0a0a0" d="M 827.5,1081.5 C 849.415,1101.91 870.915,1122.91 892,1144.5C 892.464,1145.09 892.631,1145.76 892.5,1146.5C 870.5,1125.17 848.833,1103.5 827.5,1081.5 Z"/></g>
<g><path style="opacity:0.949" fill="#bbbbbb" d="M 497.5,1049.5 C 470.419,1078.08 442.752,1106.25 414.5,1134C 413.906,1134.46 413.239,1134.63 412.5,1134.5C 440.5,1105.83 468.833,1077.5 497.5,1049.5 Z"/></g>
<g><path style="opacity:0.996" fill="#c2c2c2" d="M 412.5,1134.5 C 410.1,1137.9 407.1,1140.57 403.5,1142.5C 405.9,1139.1 408.9,1136.43 412.5,1134.5 Z"/></g>
<g><path style="opacity:0.949" fill="#b5b5b5" d="M 403.5,1142.5 C 402.089,1144.91 400.089,1146.58 397.5,1147.5C 398.911,1145.09 400.911,1143.42 403.5,1142.5 Z"/></g>
<g><path style="opacity:0.592" fill="#ababab" d="M 892.5,1146.5 C 894.914,1147.91 896.581,1149.91 897.5,1152.5C 895.086,1151.09 893.419,1149.09 892.5,1146.5 Z"/></g>
<g><path style="opacity:0.62" fill="#a1a1a1" d="M 897.5,1152.5 C 898.906,1152.97 899.573,1153.97 899.5,1155.5C 898.094,1155.03 897.427,1154.03 897.5,1152.5 Z"/></g>
<g><path style="opacity:0.953" fill="#b0b0b0" d="M 835.5,1158.5 C 838.5,1159.5 840.5,1161.5 841.5,1164.5C 839.167,1162.83 837.167,1160.83 835.5,1158.5 Z"/></g>
<g><path style="opacity:0.62" fill="#a7a7a7" d="M 902.5,1162.5 C 903.952,1164.85 904.618,1167.51 904.5,1170.5C 904.493,1172.37 904.16,1174.04 903.5,1175.5C 903.533,1171.13 903.2,1166.8 902.5,1162.5 Z"/></g>
<g><path style="opacity:0.953" fill="#a9a9a9" d="M 853.5,1176.5 C 856.764,1178.09 859.431,1180.43 861.5,1183.5C 858.236,1181.91 855.569,1179.57 853.5,1176.5 Z"/></g>
<g><path style="opacity:0.353" fill="#9b9b9b" d="M 901.5,1180.5 C 901.573,1182.03 900.906,1183.03 899.5,1183.5C 899.427,1181.97 900.094,1180.97 901.5,1180.5 Z"/></g>
<g><path style="opacity:0.09" fill="#999999" d="M 898.5,1184.5 C 897.5,1187.5 895.5,1189.5 892.5,1190.5C 894.167,1188.17 896.167,1186.17 898.5,1184.5 Z"/></g>
<g><path style="opacity:0.757" fill="#b0b0b0" d="M 861.5,1183.5 C 864.089,1184.42 866.089,1186.09 867.5,1188.5C 864.911,1187.58 862.911,1185.91 861.5,1183.5 Z"/></g>
<g><path style="opacity:0.635" fill="#ababab" d="M 867.5,1188.5 C 869.749,1189.08 871.415,1190.41 872.5,1192.5C 870.251,1191.92 868.585,1190.59 867.5,1188.5 Z"/></g>
<g><path style="opacity:0.163" fill="#979797" d="M 349.5,1189.5 C 350.802,1193.74 352.135,1198.08 353.5,1202.5C 350.584,1198.75 349.25,1194.41 349.5,1189.5 Z"/></g>
<g><path style="opacity:0.063" fill="#979797" d="M 891.5,1191.5 C 890.365,1193.21 888.698,1193.88 886.5,1193.5C 887.93,1192.46 889.597,1191.8 891.5,1191.5 Z"/></g>
<g><path style="opacity:0.008" fill="#9a9a9a" d="M 353.5,1202.5 C 354.833,1203.17 355.833,1204.17 356.5,1205.5C 354.5,1205.5 353.5,1204.5 353.5,1202.5 Z"/></g>
<g><path style="opacity:0.58" fill="#a0a0a0" d="M 360.5,1208.5 C 362.027,1208.43 363.027,1209.09 363.5,1210.5C 361.973,1210.57 360.973,1209.91 360.5,1208.5 Z"/></g>
<g><path style="opacity:0.098" fill="#9a9a9a" d="M 402.5,1210.5 C 402.027,1211.91 401.027,1212.57 399.5,1212.5C 399.973,1211.09 400.973,1210.43 402.5,1210.5 Z"/></g>
<g><path style="opacity:0.927" fill="#9d9d9d" d="M 372.5,1214.5 C 379.044,1216.13 385.711,1216.8 392.5,1216.5C 388.019,1217.65 383.352,1217.82 378.5,1217C 376.277,1216.43 374.277,1215.6 372.5,1214.5 Z"/></g>
</svg>
