<?xml version="1.0" encoding="UTF-8"?>
<!DOCTYPE svg PUBLIC "-//W3C//DTD SVG 1.1//EN" "http://www.w3.org/Graphics/SVG/1.1/DTD/svg11.dtd">
<svg xmlns="http://www.w3.org/2000/svg" version="1.1" width="5100px" height="1378px" style="shape-rendering:geometricPrecision; text-rendering:geometricPrecision; image-rendering:optimizeQuality; fill-rule:evenodd; clip-rule:evenodd" xmlns:xlink="http://www.w3.org/1999/xlink">
<g><path style="opacity:0.973" fill="#0b0c0b" d="M 358.5,159.5 C 387.809,153.734 408.309,164.401 420,191.5C 425.602,213.692 419.768,232.192 402.5,247C 384.82,258.519 366.487,259.519 347.5,250C 336.944,243.103 329.777,233.603 326,221.5C 320.678,200.056 325.845,181.89 341.5,167C 347.032,163.894 352.699,161.394 358.5,159.5 Z"/></g>
<g><path style="opacity:0.968" fill="#0b0c0b" d="M 378.5,287.5 C 382.514,287.334 386.514,287.501 390.5,288C 397.044,291.216 403.044,295.216 408.5,300C 450.333,341.833 492.167,383.667 534,425.5C 539.626,432.794 545.626,439.794 552,446.5C 699.991,594.825 847.991,742.492 996,889.5C 1003.37,897.204 1010.37,905.204 1017,913.5C 1054.97,950.472 1092.64,987.805 1130,1025.5C 1135.1,1033.13 1137.1,1041.46 1136,1050.5C 1129.63,1065.76 1118.47,1070.93 1102.5,1066C 1070.33,1037.83 1040.17,1007.67 1012,975.5C 950.333,913.833 888.667,852.167 827,790.5C 777.85,837.317 729.683,885.15 682.5,934C 684.616,938.399 687.116,942.566 690,946.5C 700.867,957.036 712.034,967.202 723.5,977C 781.442,1034.94 839.275,1092.77 897,1150.5C 908.779,1166.92 906.612,1181.09 890.5,1193C 883.698,1195.15 877.031,1194.82 870.5,1192C 796.042,1119.71 722.375,1046.54 649.5,972.5C 648.707,972.069 647.873,971.735 647,971.5C 635.254,979.91 624.754,989.743 615.5,1001C 608.462,1007.71 601.128,1014.04 593.5,1020C 529.5,1084 465.5,1148 401.5,1212C 394.665,1217.19 386.998,1218.85 378.5,1217C 369.412,1214.54 361.245,1210.37 354,1204.5C 350.207,1198.03 348.541,1191.03 349,1183.5C 348.333,894.5 348.333,605.5 349,316.5C 349.192,306.939 353.359,299.773 361.5,295C 367.032,291.894 372.699,289.394 378.5,287.5 Z M 396.5,357.5 C 399.343,358.172 401.843,359.505 404,361.5C 448.972,407.472 494.306,453.139 540,498.5C 545.763,505.686 551.763,512.686 558,519.5C 626.765,588.601 695.432,656.934 764,724.5C 773.841,734.675 783.341,745.175 792.5,756C 719.792,829.199 647.459,901.865 575.5,974C 568.129,981.04 560.462,987.706 552.5,994C 501.277,1045.89 449.444,1097.06 397,1147.5C 396.5,884.167 396.333,620.834 396.5,357.5 Z"/></g>
<g><path style="opacity:0.983" fill="#000000" d="M 2112.5,369.5 C 2133.83,369.5 2155.17,369.5 2176.5,369.5C 2176.33,433.501 2176.5,497.501 2177,561.5C 2206.21,527.479 2243.38,509.313 2288.5,507C 2368.78,505.017 2426.62,539.851 2462,611.5C 2480.12,656.384 2483.45,702.384 2472,749.5C 2456.05,806.779 2420.88,847.279 2366.5,871C 2333.65,882.795 2299.98,885.795 2265.5,880C 2227.86,873.283 2197.69,854.783 2175,824.5C 2174.5,841.497 2174.33,858.497 2174.5,875.5C 2153.83,875.5 2133.17,875.5 2112.5,875.5C 2112.5,706.833 2112.5,538.167 2112.5,369.5 Z M 2282.5,568.5 C 2343.07,566.525 2383.91,593.858 2405,650.5C 2418.28,695.608 2411.95,737.608 2386,776.5C 2354.02,815.829 2313.18,829.662 2263.5,818C 2221.19,804.36 2193.69,776.193 2181,733.5C 2170.55,692.984 2176.22,654.984 2198,619.5C 2218.81,590.343 2246.98,573.343 2282.5,568.5 Z"/></g>
<g><path style="opacity:0.98" fill="#000000" d="M 2941.5,369.5 C 2962.83,369.5 2984.17,369.5 3005.5,369.5C 3005.5,537.833 3005.5,706.167 3005.5,874.5C 2984.17,874.5 2962.83,874.5 2941.5,874.5C 2941.5,706.167 2941.5,537.833 2941.5,369.5 Z"/></g>
<g><path style="opacity:0.986" fill="#000000" d="M 4898.5,369.5 C 4914.29,368.917 4929.95,369.917 4945.5,372.5C 4945.67,391.503 4945.5,410.503 4945,429.5C 4937.81,427.945 4930.48,427.278 4923,427.5C 4903.79,426.344 4886.29,431.177 4870.5,442C 4858.8,452.907 4852.63,466.407 4852,482.5C 4851.5,493.161 4851.33,503.828 4851.5,514.5C 4880.17,514.5 4908.83,514.5 4937.5,514.5C 4937.5,534.833 4937.5,555.167 4937.5,575.5C 4908.83,575.5 4880.17,575.5 4851.5,575.5C 4851.5,675.167 4851.5,774.833 4851.5,874.5C 4830.5,874.5 4809.5,874.5 4788.5,874.5C 4788.5,774.833 4788.5,675.167 4788.5,575.5C 4765.5,575.5 4742.5,575.5 4719.5,575.5C 4719.5,555.167 4719.5,534.833 4719.5,514.5C 4742.5,514.5 4765.5,514.5 4788.5,514.5C 4787.28,495.873 4788.11,477.207 4791,458.5C 4801.85,415.316 4828.68,387.483 4871.5,375C 4880.55,372.719 4889.55,370.885 4898.5,369.5 Z"/></g>
<g><path style="opacity:0.984" fill="#000000" d="M 1497.5,377.5 C 1519.83,377.5 1542.17,377.5 1564.5,377.5C 1564.5,543.5 1564.5,709.5 1564.5,875.5C 1542.17,875.5 1519.83,875.5 1497.5,875.5C 1497.5,709.5 1497.5,543.5 1497.5,377.5 Z"/></g>
<g><path style="opacity:0.983" fill="#000000" d="M 3237.5,377.5 C 3263.74,377.172 3289.91,377.505 3316,378.5C 3375.27,543.462 3434.43,708.462 3493.5,873.5C 3469.6,874.827 3445.77,874.827 3422,873.5C 3408.83,835.833 3395.67,798.167 3382.5,760.5C 3311.83,759.167 3241.17,759.167 3170.5,760.5C 3157.33,798.167 3144.17,835.833 3131,873.5C 3107.23,874.827 3083.4,874.827 3059.5,873.5C 3118.65,708.062 3177.98,542.729 3237.5,377.5 Z M 3275.5,456.5 C 3276.5,456.47 3277.16,456.97 3277.5,458C 3305.17,537.683 3332.84,617.35 3360.5,697C 3304.5,697.5 3248.5,697.667 3192.5,697.5C 3219.97,617.104 3247.63,536.77 3275.5,456.5 Z"/></g>
<g><path style="opacity:0.984" fill="#000000" d="M 3554.5,377.5 C 3619.5,377.333 3684.5,377.5 3749.5,378C 3792.05,380.368 3828.55,396.202 3859,425.5C 3889.12,460.873 3901.79,501.873 3897,548.5C 3889.84,610.156 3857.34,652.156 3799.5,674.5C 3837.83,741.167 3876.17,807.833 3914.5,874.5C 3888.6,875.827 3862.77,875.827 3837,874.5C 3801.7,811.705 3766.2,749.038 3730.5,686.5C 3694.17,685.5 3657.84,685.167 3621.5,685.5C 3621.5,748.5 3621.5,811.5 3621.5,874.5C 3599.17,874.5 3576.83,874.5 3554.5,874.5C 3554.5,708.833 3554.5,543.167 3554.5,377.5 Z M 3621.5,438.5 C 3663.17,438.333 3704.83,438.5 3746.5,439C 3800.34,446.166 3828.34,476.833 3830.5,531C 3828.68,583.819 3801.68,614.485 3749.5,623C 3706.85,624.398 3664.18,624.898 3621.5,624.5C 3621.5,562.5 3621.5,500.5 3621.5,438.5 Z"/></g>
<g><path style="opacity:0.98" fill="#000000" d="M 1818.5,506.5 C 1860.22,503.842 1897.89,514.675 1931.5,539C 1940.33,546.5 1948.5,554.667 1956,563.5C 1956.5,547.17 1956.67,530.837 1956.5,514.5C 1977.17,514.5 1997.83,514.5 2018.5,514.5C 2018.83,679.188 2018.49,843.855 2017.5,1008.5C 1996.5,1008.5 1975.5,1008.5 1954.5,1008.5C 1954.67,948.166 1954.5,887.832 1954,827.5C 1929.48,857.938 1897.65,875.771 1858.5,881C 1787.86,889.922 1730.7,866.422 1687,810.5C 1656.62,765.294 1645.62,715.627 1654,661.5C 1663.69,603.861 1693.19,559.695 1742.5,529C 1766.3,515.888 1791.64,508.388 1818.5,506.5 Z M 1823.5,568.5 C 1886.82,566.729 1928.66,595.729 1949,655.5C 1960.04,697.235 1954.04,736.235 1931,772.5C 1897.76,815.583 1854.59,830.416 1801.5,817C 1754.52,799.27 1727.35,765.437 1720,715.5C 1713.8,670.436 1726.3,631.602 1757.5,599C 1776.41,582.044 1798.41,571.878 1823.5,568.5 Z"/></g>
<g><path style="opacity:0.98" fill="#000000" d="M 2696.5,506.5 C 2737.38,503.712 2774.04,514.545 2806.5,539C 2831.05,560.594 2844.55,587.76 2847,620.5C 2847.5,705.499 2847.67,790.499 2847.5,875.5C 2826.83,875.5 2806.17,875.5 2785.5,875.5C 2785.67,860.496 2785.5,845.496 2785,830.5C 2758.54,860.983 2725.04,878.149 2684.5,882C 2648.93,886.488 2615.93,879.488 2585.5,861C 2550.69,834.584 2537.52,799.751 2546,756.5C 2552.53,726.647 2569.03,704.147 2595.5,689C 2609.72,681.056 2624.72,675.056 2640.5,671C 2688.06,662.184 2735.73,654.017 2783.5,646.5C 2787.57,603.775 2768.91,577.275 2727.5,567C 2677.23,559.466 2640.23,577.966 2616.5,622.5C 2598.59,613.294 2580.75,603.961 2563,594.5C 2564.44,588.602 2566.77,582.936 2570,577.5C 2592.34,545.186 2622.5,523.686 2660.5,513C 2672.47,509.843 2684.47,507.676 2696.5,506.5 Z M 2781.5,699.5 C 2789.39,746.989 2773.72,784.823 2734.5,813C 2708.85,827.608 2681.52,832.275 2652.5,827C 2619.81,817.332 2606.64,795.832 2613,762.5C 2619.97,742.864 2633.47,730.031 2653.5,724C 2658.46,722.511 2663.46,721.178 2668.5,720C 2706.34,713.362 2744.01,706.528 2781.5,699.5 Z"/></g>
<g><path style="opacity:0.98" fill="#000000" d="M 4117.5,506.5 C 4158.38,503.712 4195.04,514.545 4227.5,539C 4252.05,560.594 4265.55,587.76 4268,620.5C 4268.5,705.499 4268.67,790.499 4268.5,875.5C 4247.83,875.5 4227.17,875.5 4206.5,875.5C 4206.67,860.496 4206.5,845.496 4206,830.5C 4179.54,860.983 4146.04,878.149 4105.5,882C 4069.93,886.488 4036.93,879.488 4006.5,861C 3971.69,834.584 3958.52,799.751 3967,756.5C 3973.53,726.647 3990.03,704.147 4016.5,689C 4030.72,681.056 4045.72,675.056 4061.5,671C 4109.06,662.184 4156.73,654.017 4204.5,646.5C 4208.57,603.775 4189.91,577.275 4148.5,567C 4098.23,559.466 4061.23,577.966 4037.5,622.5C 4019.59,613.294 4001.75,603.961 3984,594.5C 3985.44,588.602 3987.77,582.936 3991,577.5C 4013.34,545.186 4043.5,523.686 4081.5,513C 4093.47,509.843 4105.47,507.676 4117.5,506.5 Z M 4202.5,699.5 C 4210.39,746.989 4194.72,784.823 4155.5,813C 4129.85,827.608 4102.52,832.275 4073.5,827C 4040.81,817.332 4027.64,795.832 4034,762.5C 4040.97,742.864 4054.47,730.031 4074.5,724C 4079.46,722.511 4084.46,721.178 4089.5,720C 4127.34,713.362 4165.01,706.528 4202.5,699.5 Z"/></g>
<g><path style="opacity:0.987" fill="#000000" d="M 4356.5,514.5 C 4377.5,514.5 4398.5,514.5 4419.5,514.5C 4419.33,590.167 4419.5,665.834 4420,741.5C 4426.14,792.146 4454.64,818.813 4505.5,821.5C 4554.95,819.221 4583.45,793.555 4591,744.5C 4591.33,738.833 4591.67,733.167 4592,727.5C 4592.5,656.501 4592.67,585.501 4592.5,514.5C 4613.5,514.5 4634.5,514.5 4655.5,514.5C 4655.5,634.833 4655.5,755.167 4655.5,875.5C 4635.17,875.5 4614.83,875.5 4594.5,875.5C 4594.67,860.83 4594.5,846.163 4594,831.5C 4573.81,861.199 4545.64,878.032 4509.5,882C 4462.95,887.599 4423.45,873.765 4391,840.5C 4371.2,817.208 4359.86,790.208 4357,759.5C 4356.5,677.834 4356.33,596.167 4356.5,514.5 Z"/></g>
</svg>
